HIERARCHY
ROOT Hips
{
	OFFSET 0.000000 1.471914 24.280096
	CHANNELS 6 Xposition Yposition Zposition Xrotation Yrotation Zrotation
	JOINT Spine
	{
		OFFSET 0.000000 0.900110 1.860670
		CHANNELS 6 Xposition Yposition Zposition Xrotation Yrotation Zrotation
		JOINT Spine1
		{
			OFFSET 0.000000 0.400320 2.270309
			CHANNELS 6 Xposition Yposition Zposition Xrotation Yrotation Zrotation
			JOINT Spine2
			{
				OFFSET 0.000000 0.200920 2.296560
				CHANNELS 6 Xposition Yposition Zposition Xrotation Yrotation Zrotation
				JOINT Spine3
				{
					OFFSET 0.000000 0.000000 2.305330
					CHANNELS 6 Xposition Yposition Zposition Xrotation Yrotation Zrotation
					JOINT Neck
					{
						OFFSET 0.000000 -0.864490 6.051487
						CHANNELS 6 Xposition Yposition Zposition Xrotation Yrotation Zrotation
						JOINT Head
						{
							OFFSET 0.000000 -0.550429 3.121674
							CHANNELS 6 Xposition Yposition Zposition Xrotation Yrotation Zrotation
							End Site
							{
								OFFSET 0.000000 0.000000 3.731750
							}
						}
					}
					JOINT RightShoulder
					{
						OFFSET -0.788280 -1.313800 4.256718
						CHANNELS 6 Xposition Yposition Zposition Xrotation Yrotation Zrotation
						JOINT RightArm
						{
							OFFSET -3.915130 0.000000 0.000000
							CHANNELS 6 Xposition Yposition Zposition Xrotation Yrotation Zrotation
							JOINT RightForeArm
							{
								OFFSET -6.914910 0.000000 0.000000
								CHANNELS 6 Xposition Yposition Zposition Xrotation Yrotation Zrotation
								JOINT RightHand
								{
									OFFSET -6.096219 0.000000 0.000000
									CHANNELS 6 Xposition Yposition Zposition Xrotation Yrotation Zrotation
									JOINT RightHandEnd
									{
										OFFSET -1.749950 0.000000 0.000000
										CHANNELS 6 Xposition Yposition Zposition Xrotation Yrotation Zrotation
										End Site
										{
											OFFSET -1.749950 0.000000 0.000000
										}
									}
									JOINT RightHandThumb1
									{
										OFFSET -0.699980 -1.166630 -0.466648
										CHANNELS 6 Xposition Yposition Zposition Xrotation Yrotation Zrotation
										End Site
										{
											OFFSET -1.690319 -0.452920 0.000000
										}
									}
								}
							}
						}
					}
					JOINT LeftShoulder
					{
						OFFSET 0.788280 -1.313800 4.256718
						CHANNELS 6 Xposition Yposition Zposition Xrotation Yrotation Zrotation
						JOINT LeftArm
						{
							OFFSET 3.915130 0.000000 0.000000
							CHANNELS 6 Xposition Yposition Zposition Xrotation Yrotation Zrotation
							JOINT LeftForeArm
							{
								OFFSET 6.914910 0.000000 0.000000
								CHANNELS 6 Xposition Yposition Zposition Xrotation Yrotation Zrotation
								JOINT LeftHand
								{
									OFFSET 6.096219 0.000000 0.000000
									CHANNELS 6 Xposition Yposition Zposition Xrotation Yrotation Zrotation
									JOINT LeftHandEnd
									{
										OFFSET 1.749950 0.000000 0.000000
										CHANNELS 6 Xposition Yposition Zposition Xrotation Yrotation Zrotation
										End Site
										{
											OFFSET 1.749950 0.000000 0.000000
										}
									}
									JOINT LeftHandThumb1
									{
										OFFSET 0.699980 -1.166630 -0.466648
										CHANNELS 6 Xposition Yposition Zposition Xrotation Yrotation Zrotation
										End Site
										{
											OFFSET 1.690319 -0.452920 0.000000
										}
									}
								}
							}
						}
					}
				}
			}
		}
	}
	JOINT RightUpLeg
	{
		OFFSET -2.338570 -0.252550 -0.551512
		CHANNELS 6 Xposition Yposition Zposition Xrotation Yrotation Zrotation
		JOINT RightLeg
		{
			OFFSET 0.000000 0.000000 -10.744959
			CHANNELS 6 Xposition Yposition Zposition Xrotation Yrotation Zrotation
			JOINT RightFoot
			{
				OFFSET 0.000000 -0.000001 -10.930849
				CHANNELS 6 Xposition Yposition Zposition Xrotation Yrotation Zrotation
				JOINT RightToeBase
				{
					OFFSET 0.000000 -4.087269 -1.487650
					CHANNELS 6 Xposition Yposition Zposition Xrotation Yrotation Zrotation
					End Site
					{
						OFFSET 0.000000 -1.891870 0.000000
					}
				}
			}
		}
	}
	JOINT LeftUpLeg
	{
		OFFSET 2.338570 -0.252550 -0.551512
		CHANNELS 6 Xposition Yposition Zposition Xrotation Yrotation Zrotation
		JOINT LeftLeg
		{
			OFFSET 0.000000 0.000000 -10.744959
			CHANNELS 6 Xposition Yposition Zposition Xrotation Yrotation Zrotation
			JOINT LeftFoot
			{
				OFFSET 0.000000 -0.000001 -10.930849
				CHANNELS 6 Xposition Yposition Zposition Xrotation Yrotation Zrotation
				JOINT LeftToeBase
				{
					OFFSET 0.000000 -4.087269 -1.487650
					CHANNELS 6 Xposition Yposition Zposition Xrotation Yrotation Zrotation
					End Site
					{
						OFFSET 0.000000 -1.891870 0.000000
					}
				}
			}
		}
	}
}
MOTION
Frames: 4
Frame Time: 0.041667
0.000026 26.688528 39.984886 -9.186394 -3.391799 1.764674 -0.000023 0.900109 1.860699 20.637114 8.366725 -1.184129 0.000012 0.400273 2.270329 -0.000001 -0.000002 0.000007 0.000016 0.200888 2.296541 0.000000 -0.000001 0.000002 0.000032 0.000007 2.305329 -0.000051 -0.000001 7.640530 -0.000012 -0.864460 6.051455 6.258159 -5.020661 170.250197 0.000010 -0.550424 3.121693 -0.000006 0.000002 -0.000001 -0.788275 -1.313728 4.256799 -116.410616 43.838893 -66.192545 -3.915101 -0.000008 -0.000031 -0.000004 0.000001 -0.000003 -6.914926 -0.000011 0.000001 0.000032 0.000062 -39.340172 -6.096199 -0.000000 0.000022 -0.000146 -0.000141 -0.000100 -1.749892 -0.000030 0.000035 -0.000003 0.000001 0.000000 -0.699971 -1.166638 -0.466662 -0.000014 -0.000008 -0.000001 0.788260 -1.313783 4.256746 -156.311488 -65.838891 30.634539 3.915170 0.000005 -0.000034 0.000001 -0.000000 0.000003 6.914931 -0.000040 0.000003 0.000033 -0.000082 22.221172 6.096231 0.000089 -0.000033 -0.000033 0.000136 0.000026 1.749975 0.000013 0.000032 -0.000006 -0.000003 -0.000001 0.699948 -1.166608 -0.466626 0.000006 0.000001 -0.000022 -2.338564 -0.252542 -0.551499 19.737184 -3.923778 -1.132330 0.000014 -0.000026 -10.744968 8.626055 -0.636639 -1.064264 -0.000028 0.000091 -10.930836 -0.000007 0.000000 0.000000 0.000009 -4.087268 -1.487635 0.000005 0.000001 -0.000002 2.338572 -0.252538 -0.551464 10.259084 -8.292186 -0.610590 -0.000001 -0.000034 -10.744902 16.426562 7.317235 -3.269520 -0.000012 0.000013 -10.930870 0.000012 0.000000 -0.000003 -0.000017 -4.087235 -1.487651 -0.000006 0.000002 -0.000001 
0.000026 26.688540 39.984901 -9.186475 -3.083024 0.661953 -0.000023 0.900112 1.860698 20.530140 7.895241 -1.162429 0.000012 0.400273 2.270325 -0.000003 -0.000002 0.000008 0.000016 0.200892 2.296545 0.000000 -0.000001 0.000002 0.000033 0.000009 2.305321 -0.000053 -0.000002 7.441567 -0.000012 -0.864457 6.051453 5.814572 -4.461341 171.606645 0.000010 -0.550427 3.121693 -0.000004 0.000002 -0.000001 -0.788274 -1.313727 4.256798 -117.155298 44.588438 -64.175194 -3.915102 -0.000009 -0.000027 0.000003 -0.000002 -0.000002 -6.914920 -0.000011 0.000002 0.000029 0.000067 -38.180874 -6.096190 0.000004 0.000025 -0.000150 -0.000142 -0.000097 -1.749898 -0.000032 0.000038 -0.000003 0.000001 0.000005 -0.699976 -1.166638 -0.466656 -0.000014 -0.000006 0.000002 0.788258 -1.313780 4.256742 -146.349794 -64.033788 39.015861 3.915172 0.000010 -0.000030 0.000001 -0.000004 0.000003 6.914926 -0.000038 -0.000001 0.000034 -0.000088 21.468881 6.096222 0.000087 -0.000034 -0.000037 0.000137 0.000028 1.749974 0.000009 0.000025 -0.000008 -0.000005 -0.000000 0.699947 -1.166612 -0.466633 0.000004 -0.000001 -0.000021 -2.338564 -0.252540 -0.551498 19.923887 -3.958981 -1.127446 0.000014 -0.000024 -10.744963 8.095519 -0.511201 -0.997669 -0.000028 0.000091 -10.930836 -0.000007 -0.000001 -0.000000 0.000009 -4.087266 -1.487638 0.000001 0.000001 -0.000002 2.338573 -0.252537 -0.551462 10.542870 -7.865199 -0.618698 -0.000000 -0.000035 -10.744896 15.688910 6.850190 -3.001055 -0.000011 0.000018 -10.930865 0.000009 0.000000 -0.000003 -0.000017 -4.087234 -1.487650 -0.000008 0.000001 -0.000001 
0.000025 26.688543 39.984917 -9.023623 -2.907630 -0.613141 -0.000022 0.900105 1.860695 20.462793 7.904139 -1.111260 0.000012 0.400271 2.270327 -0.000004 -0.000000 0.000007 0.000016 0.200890 2.296543 0.000001 -0.000002 0.000002 0.000032 0.000007 2.305325 -0.000051 -0.000000 7.279731 -0.000012 -0.864457 6.051447 5.409845 -4.088506 173.149243 0.000010 -0.550424 3.121700 -0.000005 0.000002 -0.000001 -0.788276 -1.313729 4.256793 -118.035504 44.485189 -62.508976 -3.915099 -0.000013 -0.000034 -0.000004 -0.000001 -0.000000 -6.914929 -0.000010 0.000006 0.000034 0.000067 -37.821466 -6.096185 0.000003 0.000021 -0.000148 -0.000140 -0.000101 -1.749896 -0.000030 0.000038 -0.000000 0.000001 -0.000003 -0.699976 -1.166640 -0.466656 -0.000012 -0.000009 0.000002 0.788263 -1.313784 4.256736 -143.392404 -63.148972 41.248472 3.915169 0.000010 -0.000030 -0.000001 -0.000002 0.000001 6.914931 -0.000038 -0.000001 0.000032 -0.000086 21.663871 6.096228 0.000088 -0.000026 -0.000043 0.000137 0.000029 1.749976 0.000011 0.000028 -0.000003 -0.000002 -0.000002 0.699950 -1.166612 -0.466630 0.000007 0.000001 -0.000026 -2.338564 -0.252544 -0.551498 19.811300 -3.757848 -1.073719 0.000015 -0.000026 -10.744959 7.624960 -0.749971 -0.896356 -0.000028 0.000095 -10.930837 -0.000009 -0.000001 -0.000000 0.000009 -4.087262 -1.487636 0.000002 0.000000 -0.000002 2.338573 -0.252544 -0.551466 10.834831 -7.295532 -0.608529 -0.000001 -0.000034 -10.744900 14.710634 6.381482 -2.640790 -0.000011 0.000022 -10.930866 0.000005 -0.000000 -0.000003 -0.000018 -4.087234 -1.487648 -0.000004 0.000002 -0.000001 
0.000030 26.688547 39.984928 -8.664489 -2.700959 -2.457549 -0.000022 0.900109 1.860694 20.163883 7.841563 -1.104638 0.000012 0.400271 2.270327 -0.000003 -0.000002 0.000007 0.000016 0.200892 2.296549 0.000001 -0.000001 0.000002 0.000032 0.000006 2.305329 -0.000056 -0.000002 6.648788 -0.000011 -0.864458 6.051451 4.867752 -3.753672 175.638287 0.000010 -0.550424 3.121693 -0.000006 0.000002 -0.000001 -0.788274 -1.313731 4.256800 -118.637517 44.991286 -61.356320 -3.915102 -0.000012 -0.000031 0.000002 -0.000001 0.000001 -6.914921 -0.000015 -0.000001 0.000031 0.000069 -36.597403 -6.096190 0.000001 0.000028 -0.000146 -0.000138 -0.000101 -1.749897 -0.000030 0.000038 -0.000000 0.000003 -0.000002 -0.699981 -1.166640 -0.466652 -0.000012 -0.000007 0.000003 0.788258 -1.313782 4.256748 -142.485109 -62.217067 41.084466 3.915172 0.000008 -0.000026 -0.000001 -0.000001 0.000002 6.914933 -0.000040 0.000007 0.000033 -0.000086 21.766923 6.096232 0.000087 -0.000027 -0.000035 0.000136 0.000026 1.749976 0.000012 0.000026 -0.000005 -0.000005 0.000001 0.699947 -1.166610 -0.466633 0.000007 -0.000004 -0.000025 -2.338564 -0.252540 -0.551504 19.587586 -3.491202 -1.069984 0.000015 -0.000023 -10.744961 7.062074 -0.605757 -0.800557 -0.000028 0.000091 -10.930836 -0.000009 0.000000 0.000000 0.000010 -4.087272 -1.487642 0.000001 0.000001 -0.000001 2.338573 -0.252542 -0.551468 11.244429 -6.568984 -0.635527 -0.000002 -0.000036 -10.744902 13.668009 5.330777 -2.293895 -0.000011 0.000017 -10.930866 0.000009 -0.000000 -0.000003 -0.000016 -4.087231 -1.487647 -0.000009 0.000001 -0.000000 
